<svg width="18" height="16" viewBox="0 0 18 16" fill="none" xmlns="http://www.w3.org/2000/svg">
<path fill-rule="evenodd" clip-rule="evenodd" d="M3.66668 0C3.18654 0 2.77418 0.341235 2.68434 0.812888L0.0176698 14.8129C-0.0380872 15.1056 0.0396067 15.408 0.229582 15.6375C0.419558 15.8671 0.702021 16 1.00001 16H17C17.298 16 17.5805 15.8671 17.7704 15.6375C17.9604 15.408 18.0381 15.1056 17.9823 14.8129L15.3157 0.812888C15.2258 0.341235 14.8135 0 14.3333 0H12H6.00001H3.66668ZM5.00001 2H4.49418L2.20846 14H15.7916L13.5058 2H13V3C13 5.20914 11.2091 7 9.00001 7C6.79087 7 5.00001 5.20914 5.00001 3V2ZM11 2V3C11 4.10457 10.1046 5 9.00001 5C7.89544 5 7.00001 4.10457 7.00001 3V2H11Z" fill="#313638"/>
</svg>
