<svg width="28" height="28" viewBox="0 0 28 28" fill="none" xmlns="http://www.w3.org/2000/svg">
<path fill-rule="evenodd" clip-rule="evenodd" d="M3.33329 0.666504C1.86053 0.666504 0.666626 1.86041 0.666626 3.33317V7.33317C0.666626 8.32021 1.20289 9.18201 1.99996 9.64309V9.99984V23.3332C1.99996 25.5423 3.79082 27.3332 5.99996 27.3332H22C24.2091 27.3332 26 25.5423 26 23.3332V9.99984V9.64309C26.797 9.18201 27.3333 8.32021 27.3333 7.33317V3.33317C27.3333 1.86041 26.1394 0.666504 24.6666 0.666504H3.33329ZM23.3333 9.99984H20.6666H7.33329H4.66663V12.6665V23.3332C4.66663 24.0695 5.26358 24.6665 5.99996 24.6665H22C22.7363 24.6665 23.3333 24.0695 23.3333 23.3332V12.6665V9.99984ZM24.6666 7.33317V5.99984V4.6665V3.33317H22H5.99996H3.33329V4.6665V5.99984V7.33317H4.66663H5.99996H22H23.3333H24.6666Z" fill="white"/>
</svg>
