<svg width="20" height="18" viewBox="0 0 20 18" fill="none" xmlns="http://www.w3.org/2000/svg">
<path fill-rule="evenodd" clip-rule="evenodd" d="M8.97225 17.2157L10.0001 15.5L11.0537 17.2C10.4175 17.5943 9.61436 17.6003 8.97225 17.2157ZM8.4923 3.50745C7.71929 2.98243 6.70938 2.5 5.60821 2.5C3.08285 2.5 1.60058 4.35714 2.09467 6.90625C2.9406 11.2706 10.0001 15.5 10.0001 15.5C8.97225 17.2157 8.97264 17.2159 8.97225 17.2157L8.96826 17.2133L8.96168 17.2093L8.94094 17.1967C8.92378 17.1863 8.90005 17.1718 8.87014 17.1533C8.81032 17.1164 8.72573 17.0636 8.61965 16.996C8.40764 16.8607 8.10885 16.6655 7.74979 16.4184C7.03442 15.9259 6.06616 15.2178 5.06327 14.3585C4.06602 13.5039 2.99638 12.4675 2.10432 11.3133C1.22478 10.1752 0.425417 8.80467 0.131215 7.28682C-0.204471 5.55495 0.097301 3.8269 1.1556 2.50009C2.2207 1.16473 3.84225 0.5 5.60821 0.5C7.43187 0.5 8.94778 1.35898 9.88823 2.04462C9.9261 2.07223 9.9634 2.09983 10.0001 2.12737C10.0368 2.09983 10.0741 2.07223 10.112 2.04462C11.0525 1.35898 12.5684 0.5 14.392 0.5C18.3372 0.5 20.6131 4.15474 19.8517 7.36746C19.5026 8.84055 18.6938 10.1821 17.8125 11.3083C16.919 12.4501 15.863 13.4815 14.8804 14.336C13.8929 15.1949 12.9451 15.9046 12.2457 16.3991C11.8948 16.6473 11.6034 16.8434 11.3968 16.9793C11.2934 17.0473 11.211 17.1003 11.1529 17.1374C11.1381 17.1468 11.1249 17.1552 11.1134 17.1625C11.1021 17.1697 11.0923 17.1759 11.0841 17.181L11.0639 17.1936L11.0576 17.1976L11.0537 17.2C11.0534 17.2002 11.0537 17.2 10.0001 15.5C10.0001 15.5 16.8794 11.2363 17.9056 6.90625C18.3997 4.82142 16.9174 2.5 14.392 2.5C13.2909 2.5 12.281 2.98243 11.5079 3.50745C10.5853 4.13411 10.0001 4.82143 10.0001 4.82143C10.0001 4.82143 9.41497 4.13411 8.4923 3.50745Z" fill="#313638"/>
</svg>
