<svg width="20" height="28" viewBox="0 0 20 28" fill="none" xmlns="http://www.w3.org/2000/svg">
<path fill-rule="evenodd" clip-rule="evenodd" d="M4.66675 9.99984V8.6665C4.66675 5.72099 7.05456 3.33317 10.0001 3.33317C12.9456 3.33317 15.3334 5.72099 15.3334 8.6665V9.99984L4.66675 9.99984ZM2.00008 10.4599V8.6665C2.00008 4.24823 5.5818 0.666504 10.0001 0.666504C14.4184 0.666504 18.0001 4.24823 18.0001 8.6665V10.4599C18.8022 10.9762 19.3334 11.877 19.3334 12.9018V17.9998C19.3334 23.1545 15.1547 27.3332 10.0001 27.3332C4.84542 27.3332 0.666748 23.1545 0.666748 17.9998V12.9018C0.666748 11.877 1.19797 10.9762 2.00008 10.4599ZM3.56871 12.6665C3.43876 12.6665 3.33341 12.7718 3.33341 12.9018L3.33342 17.9998C3.33342 21.6817 6.31818 24.6665 10.0001 24.6665C13.682 24.6665 16.6667 21.6817 16.6667 17.9998V12.9018C16.6667 12.7718 16.5614 12.6665 16.4315 12.6665H15.3334H4.66675H3.56871ZM10.0001 15.3332C11.4728 15.3332 12.6667 16.5271 12.6667 17.9998C12.6667 19.4726 11.4728 20.6665 10.0001 20.6665C8.52732 20.6665 7.33342 19.4726 7.33342 17.9998C7.33342 16.5271 8.52732 15.3332 10.0001 15.3332Z" fill="white"/>
</svg>
