<svg width="28" height="28" viewBox="0 0 28 28" fill="none" xmlns="http://www.w3.org/2000/svg">
<path fill-rule="evenodd" clip-rule="evenodd" d="M6.40511 3.3304C6.40514 3.33038 6.40546 3.33073 6.40601 3.33154L6.40511 3.3304ZM6.46253 3.42145L9.13888 7.67988C8.81547 7.98649 8.46271 8.29019 8.08305 8.61705C7.75675 8.89796 7.41059 9.19598 7.04613 9.52764C6.14282 10.3497 5.96834 11.6718 6.55296 12.7007C9.64443 18.1414 13.861 20.6171 15.7477 21.506C16.8843 22.0415 18.1193 21.6189 18.8068 20.7438L20.6588 18.3864C20.6599 18.3849 20.6598 18.3853 20.6591 18.3857C20.659 18.3858 20.6603 18.385 20.6631 18.3845C20.6659 18.384 20.6687 18.3841 20.671 18.3845C20.6727 18.3849 20.6751 18.3855 20.6789 18.3879C21.7581 19.0539 23.2637 19.9591 24.6467 20.7254C24.3983 22.225 23.8278 23.0985 23.1987 23.6326C22.5381 24.1934 21.6838 24.4885 20.731 24.5951C18.8285 24.8078 16.8972 24.2307 16.4689 24.09C15.9962 23.8484 13.4048 22.4843 10.6363 20.2739C7.78153 17.9946 4.91898 14.957 3.8242 11.4731C3.02409 8.92689 3.32579 7.13518 3.95465 5.89929C4.56258 4.70454 5.54637 3.89362 6.46253 3.42145ZM5.49437 0.901124C6.75561 0.302919 8.05977 0.926631 8.66724 1.8932L11.4671 6.34814C12.0331 7.24877 12.0719 8.56537 11.1517 9.46728C10.7574 9.85381 10.2087 10.3289 9.6981 10.771C9.41783 11.0137 9.14905 11.2464 8.92357 11.4491C11.5843 16.0821 15.1414 18.2256 16.7593 19.0094L18.5603 16.7169C19.4106 15.6345 20.9246 15.3815 22.0775 16.0931C23.144 16.7514 24.6185 17.6373 25.9547 18.3771C26.8459 18.8705 27.4833 19.899 27.3027 21.0603C26.9783 23.146 26.131 24.6652 24.9236 25.6902C23.7363 26.6981 22.322 27.1257 21.0264 27.2706C18.4781 27.5555 16.0407 26.7839 15.5957 26.6348C15.483 26.5971 15.3895 26.5573 15.2889 26.5062C14.8111 26.2635 11.9952 24.7952 8.97363 22.3828C5.98354 19.9954 2.61143 16.542 1.2736 12.2847C0.290895 9.15748 0.581598 6.62185 1.57357 4.67237C2.54814 2.75705 4.12642 1.54994 5.49437 0.901124Z" fill="white"/>
</svg>
